<svg width="30" height="41" viewBox="0 0 30 41" fill="none" xmlns="http://www.w3.org/2000/svg">
<path d="M23.75 13.75C23.75 12.6009 23.5237 11.4631 23.0839 10.4015C22.6442 9.33992 21.9997 8.37533 21.1872 7.56282C20.3747 6.7503 19.4101 6.10578 18.3485 5.66605C17.2869 5.22633 16.1491 5 15 5C13.8509 5 12.7131 5.22633 11.6515 5.66605C10.5899 6.10578 9.62533 6.7503 8.81282 7.56282C8.0003 8.37533 7.35578 9.33992 6.91605 10.4015C6.47633 11.4631 6.25 12.6009 6.25 13.75C6.25 15.4838 6.76125 17.0963 7.63125 18.4563H7.62125L15 30L22.3787 18.4563H22.37C23.2712 17.052 23.7501 15.4185 23.75 13.75ZM15 17.5C14.0054 17.5 13.0516 17.1049 12.3483 16.4017C11.6451 15.6984 11.25 14.7446 11.25 13.75C11.25 12.7554 11.6451 11.8016 12.3483 11.0983C13.0516 10.3951 14.0054 10 15 10C15.9946 10 16.9484 10.3951 17.6517 11.0983C18.3549 11.8016 18.75 12.7554 18.75 13.75C18.75 14.7446 18.3549 15.6984 17.6517 16.4017C16.9484 17.1049 15.9946 17.5 15 17.5Z" fill="#CAA55E"/>
</svg>
