<svg width="19" height="20" viewBox="0 0 19 20" fill="none" xmlns="http://www.w3.org/2000/svg">
<g clip-path="url(#clip0_59_3530)">
<path fill-rule="evenodd" clip-rule="evenodd" d="M6.79019 11.3314L9.46953 13.1633L12.0523 11.3815L17.8418 17.0934C17.689 17.1432 17.5274 17.1685 17.357 17.1691H1.57825C1.36997 17.1691 1.17115 17.1284 0.988421 17.0555L6.79019 11.3314ZM18.9353 6.63731V15.5908C18.9353 15.8247 18.8841 16.0462 18.7932 16.246L13.1184 10.6468L18.9353 6.63731ZM0 6.68748L5.72034 10.5995L0.100357 16.1456C0.0345216 15.9681 0.000548168 15.7802 0 15.5908L0 6.68748ZM17.357 2.96765C18.228 2.96765 18.9353 3.67394 18.9353 4.54591V5.10071L9.46574 11.6286L0 5.15467V4.54591C0 3.67488 0.706285 2.96765 1.57825 2.96765H17.357Z" fill="#CAA55E"/>
</g>
<defs>
<clipPath id="clip0_59_3530">
<rect width="18.9353" height="18.9353" fill="white" transform="translate(0 0.600708)"/>
</clipPath>
</defs>
</svg>
