<svg width="19" height="19" viewBox="0 0 19 19" fill="none" xmlns="http://www.w3.org/2000/svg">
<path d="M5.22326 8.5453C6.35937 10.7781 8.18978 12.6006 10.4226 13.7446L12.1583 12.0089C12.3713 11.7959 12.6869 11.7248 12.963 11.8195C13.8467 12.1114 14.8013 12.2692 15.7797 12.2692C16.2136 12.2692 16.5686 12.6243 16.5686 13.0582V15.8117C16.5686 16.2456 16.2136 16.6007 15.7797 16.6007C8.37124 16.6007 2.36719 10.5966 2.36719 3.1882C2.36719 2.75427 2.72222 2.39923 3.15616 2.39923H5.91755C6.35148 2.39923 6.70652 2.75427 6.70652 3.1882C6.70652 4.17441 6.86431 5.12118 7.15623 6.00482C7.24302 6.28096 7.1799 6.58866 6.95899 6.80957L5.22326 8.5453Z" fill="#CAA55E"/>
</svg>
