<svg width="41" height="40" viewBox="0 0 41 40" fill="none" xmlns="http://www.w3.org/2000/svg">
<path d="M37.0002 20C37.0002 19.8167 36.9002 19.6334 36.8502 19.45C36.773 19.1266 36.6728 18.8091 36.5502 18.5C36.4668 18.3 36.3502 18.1 36.2502 17.8834C36.1502 17.6667 36.0002 17.3834 35.8502 17.15C35.7002 16.9167 35.5002 16.8 35.5002 16.6667C35.5002 16.5334 35.1668 16.25 34.9835 16.05C34.8002 15.85 34.6335 15.7167 34.4502 15.55L33.8335 15L33.2335 14.6C32.998 14.4559 32.753 14.3278 32.5002 14.2167L31.8502 13.9167C31.5779 13.8159 31.2996 13.7324 31.0168 13.6667C30.7928 13.6008 30.5645 13.5507 30.3335 13.5167L29.9502 13.3334C29.2701 11.3685 27.9944 9.66439 26.3007 8.4583C24.607 7.25221 22.5794 6.60406 20.5002 6.60406C18.4209 6.60406 16.3933 7.25221 14.6996 8.4583C13.0059 9.66439 11.7302 11.3685 11.0502 13.3334L10.7502 13.4167C10.5192 13.4507 10.2908 13.5008 10.0668 13.5667C9.78406 13.6324 9.50572 13.7159 9.2335 13.8167L8.5835 14.1167C8.3307 14.2278 8.0857 14.3559 7.85016 14.5L7.25016 15L6.6335 15.5167C6.45016 15.6834 6.26683 15.8334 6.10016 16.0167C5.9335 16.2 5.75016 16.4334 5.5835 16.6334C5.41683 16.8334 5.2835 17.0167 5.15016 17.2334C5.01683 17.45 4.8835 17.7167 4.75016 17.9667C4.61683 18.2167 4.5335 18.3834 4.45016 18.5834C4.32757 18.8924 4.22731 19.2099 4.15016 19.5334C4.15016 19.7167 4.0335 19.9 4.00016 20.0834C3.89642 20.6049 3.84064 21.1349 3.8335 21.6667C3.84131 22.1755 3.89148 22.6828 3.9835 23.1834C3.9835 23.35 4.06683 23.5 4.10016 23.6667C4.18254 23.9941 4.28269 24.3168 4.40016 24.6334L4.60016 25.1167C4.74688 25.4381 4.91388 25.7498 5.10016 26.05L5.3335 26.4167C5.35747 26.4634 5.38535 26.508 5.41683 26.55L5.50016 26.6667C6.27639 27.7017 7.28292 28.5417 8.44005 29.1203C9.59718 29.6988 10.8731 30 12.1668 30H17.1668V27.7167C16.6604 28.0105 16.0856 28.1657 15.5002 28.1667C14.5973 28.1583 13.7344 27.7927 13.1002 27.15C12.7956 26.835 12.5562 26.463 12.3956 26.0554C12.235 25.6478 12.1563 25.2125 12.164 24.7744C12.1717 24.3363 12.2658 23.9041 12.4407 23.5024C12.6156 23.1007 12.868 22.7374 13.1835 22.4334L18.1835 17.6C18.8056 17.0004 19.6362 16.6658 20.5002 16.6667C21.3828 16.6704 22.2279 17.024 22.8502 17.65L27.8502 22.65C28.471 23.2746 28.8195 24.1194 28.8195 25C28.8195 25.8806 28.471 26.7255 27.8502 27.35C27.2279 27.976 26.3828 28.3296 25.5002 28.3334C24.9139 28.3389 24.3373 28.1832 23.8335 27.8834V30H28.8335C30.1272 30 31.4032 29.6988 32.5603 29.1203C33.7174 28.5417 34.7239 27.7017 35.5002 26.6667L35.5835 26.5834C35.615 26.5413 35.6429 26.4967 35.6668 26.45L35.9002 26.0834C36.0864 25.7832 36.2535 25.4714 36.4002 25.15L36.6002 24.6667C36.7176 24.3502 36.8178 24.0275 36.9002 23.7C36.9002 23.5334 36.9835 23.3834 37.0168 23.2167C37.1107 22.7052 37.1609 22.1867 37.1668 21.6667C37.1649 21.1071 37.1091 20.5489 37.0002 20Z" fill="#333333"/>
<path d="M21.6835 18.8167C21.3719 18.5113 20.9531 18.3403 20.5168 18.3403C20.0806 18.3403 19.6617 18.5113 19.3502 18.8167L14.3502 23.65C14.1733 23.796 14.0285 23.9768 13.9247 24.1813C13.8209 24.3857 13.7605 24.6094 13.7471 24.8383C13.7337 25.0672 13.7677 25.2964 13.8469 25.5115C13.9262 25.7267 14.049 25.9232 14.2076 26.0887C14.3663 26.2543 14.5573 26.3853 14.7689 26.4736C14.9805 26.5619 15.2081 26.6056 15.4373 26.602C15.6666 26.5984 15.8926 26.5475 16.1013 26.4525C16.31 26.3575 16.4968 26.2205 16.6502 26.05L18.8335 23.9334V33.3334C18.8335 33.7754 19.0091 34.1993 19.3217 34.5119C19.6342 34.8244 20.0581 35 20.5002 35C20.9422 35 21.3661 34.8244 21.6787 34.5119C21.9912 34.1993 22.1668 33.7754 22.1668 33.3334V24.0167L24.3168 26.1834C24.4718 26.3396 24.6561 26.4636 24.8592 26.5482C25.0623 26.6328 25.2801 26.6764 25.5002 26.6764C25.7202 26.6764 25.938 26.6328 26.1411 26.5482C26.3442 26.4636 26.5286 26.3396 26.6835 26.1834C26.8397 26.0284 26.9637 25.8441 27.0483 25.641C27.1329 25.4379 27.1765 25.22 27.1765 25C27.1765 24.78 27.1329 24.5622 27.0483 24.3591C26.9637 24.156 26.8397 23.9716 26.6835 23.8167L21.6835 18.8167Z" fill="#333333"/>
</svg>
