<svg width="32" height="32" viewBox="0 0 32 32" fill="none" xmlns="http://www.w3.org/2000/svg">
<path d="M15.889 11.8633C14.792 11.8633 13.7399 12.2991 12.9642 13.0748C12.1885 13.8505 11.7527 14.9026 11.7527 15.9996C11.7527 17.0967 12.1885 18.1488 12.9642 18.9245C13.7399 19.7002 14.792 20.136 15.889 20.136C16.9861 20.136 18.0382 19.7002 18.8139 18.9245C19.5896 18.1488 20.0254 17.0967 20.0254 15.9996C20.0254 14.9026 19.5896 13.8505 18.8139 13.0748C18.0382 12.2991 16.9861 11.8633 15.889 11.8633Z" fill="#333333"/>
<path fill-rule="evenodd" clip-rule="evenodd" d="M9.23299 4.64979C13.657 4.1597 18.1217 4.1597 22.5457 4.64979C24.9626 4.91961 26.9112 6.82234 27.195 9.24816C27.7193 13.7341 27.7193 18.2658 27.195 22.7518C26.9112 25.1776 24.9626 27.0803 22.547 27.3514C18.1225 27.8416 13.6575 27.8416 9.23299 27.3514C6.81608 27.0803 4.86754 25.1776 4.58372 22.7531C4.05933 18.2667 4.05933 13.7345 4.58372 9.24816C4.86754 6.82234 6.81608 4.91961 9.23299 4.64979ZM22.253 8.36361C21.9154 8.36361 21.5917 8.4977 21.353 8.73639C21.1144 8.97507 20.9803 9.29879 20.9803 9.63634C20.9803 9.97389 21.1144 10.2976 21.353 10.5363C21.5917 10.775 21.9154 10.9091 22.253 10.9091C22.5905 10.9091 22.9143 10.775 23.1529 10.5363C23.3916 10.2976 23.5257 9.97389 23.5257 9.63634C23.5257 9.29879 23.3916 8.97507 23.1529 8.73639C22.9143 8.4977 22.5905 8.36361 22.253 8.36361ZM9.8439 16C9.8439 14.3966 10.4808 12.8589 11.6146 11.7252C12.7483 10.5915 14.286 9.95452 15.8894 9.95452C17.4927 9.95452 19.0304 10.5915 20.1641 11.7252C21.2979 12.8589 21.9348 14.3966 21.9348 16C21.9348 17.6033 21.2979 19.141 20.1641 20.2748C19.0304 21.4085 17.4927 22.0454 15.8894 22.0454C14.286 22.0454 12.7483 21.4085 11.6146 20.2748C10.4808 19.141 9.8439 17.6033 9.8439 16Z" fill="#333333"/>
</svg>
