<svg width="129" height="103" viewBox="0 0 129 103" fill="none" xmlns="http://www.w3.org/2000/svg">
<path d="M65.1853 17.1398L45.6741 32.9117C42.4289 35.527 41.8041 40.2344 44.2631 43.5939C46.8633 47.1748 51.9225 47.8789 55.4095 45.1631L75.4247 29.6326C76.8356 28.5463 78.8512 28.7877 79.9598 30.1959C81.0684 31.6041 80.8064 33.6158 79.3955 34.7223L75.1828 37.9813L103.2 63.7312V25.75H103.059L102.273 25.2471L87.6394 15.8926C84.5555 13.9211 80.9475 12.875 77.2791 12.875C72.885 12.875 68.6119 14.3838 65.1853 17.1398ZM69.7809 42.1656L59.3602 50.2527C53.0109 55.2016 43.7995 53.9141 39.0427 47.3961C34.568 41.2604 35.6967 32.6904 41.6025 27.9227L58.3725 14.3838C56.0344 13.398 53.5148 12.8951 50.955 12.8951C47.1656 12.875 43.477 14.0016 40.3125 16.0938L25.8 25.75V70.8125H31.4841L49.9069 87.5902C53.8575 91.1912 59.9648 90.9096 63.5728 86.9666C64.6814 85.7394 65.4272 84.3111 65.8102 82.8225L69.2367 85.9607C73.1672 89.5617 79.2947 89.3002 82.9026 85.3773C83.8097 84.3916 84.4748 83.2449 84.8981 82.058C88.8084 84.6732 94.1297 84.1301 97.4152 80.5492C101.023 76.6264 100.761 70.5107 96.8306 66.9098L69.7809 42.1656ZM3.225 25.75C1.45125 25.75 0 27.1984 0 28.9688V70.8125C0 74.3732 2.88234 77.25 6.45 77.25H12.9C16.4677 77.25 19.35 74.3732 19.35 70.8125V25.75H3.225ZM9.675 64.375C10.5303 64.375 11.3506 64.7141 11.9554 65.3177C12.5602 65.9214 12.9 66.7401 12.9 67.5938C12.9 68.4474 12.5602 69.2661 11.9554 69.8698C11.3506 70.4734 10.5303 70.8125 9.675 70.8125C8.81968 70.8125 7.99938 70.4734 7.39458 69.8698C6.78978 69.2661 6.45 68.4474 6.45 67.5938C6.45 66.7401 6.78978 65.9214 7.39458 65.3177C7.99938 64.7141 8.81968 64.375 9.675 64.375ZM109.65 25.75V70.8125C109.65 74.3732 112.532 77.25 116.1 77.25H122.55C126.118 77.25 129 74.3732 129 70.8125V28.9688C129 27.1984 127.549 25.75 125.775 25.75H109.65ZM116.1 67.5938C116.1 66.7401 116.44 65.9214 117.045 65.3177C117.649 64.7141 118.47 64.375 119.325 64.375C120.18 64.375 121.001 64.7141 121.605 65.3177C122.21 65.9214 122.55 66.7401 122.55 67.5938C122.55 68.4474 122.21 69.2661 121.605 69.8698C121.001 70.4734 120.18 70.8125 119.325 70.8125C118.47 70.8125 117.649 70.4734 117.045 69.8698C116.44 69.2661 116.1 68.4474 116.1 67.5938Z" fill="#333333"/>
</svg>
