<svg width="19" height="20" viewBox="0 0 19 20" fill="none" xmlns="http://www.w3.org/2000/svg">
<path d="M5.22301 9.26082C6.35913 11.4936 8.18954 13.3161 10.4223 14.4601L12.1581 12.7244C12.3711 12.5114 12.6867 12.4404 12.9628 12.535C13.8464 12.827 14.8011 12.9848 15.7794 12.9848C16.2134 12.9848 16.5684 13.3398 16.5684 13.7737V16.5272C16.5684 16.9612 16.2134 17.3162 15.7794 17.3162C8.371 17.3162 2.36694 11.3121 2.36694 3.90372C2.36694 3.46978 2.72198 3.11475 3.15591 3.11475H5.9173C6.35124 3.11475 6.70627 3.46978 6.70627 3.90372C6.70627 4.88993 6.86407 5.83669 7.15599 6.72034C7.24277 6.99647 7.17966 7.30417 6.95874 7.52508L5.22301 9.26082Z" fill="#333333"/>
</svg>
