<svg width="32" height="32" viewBox="0 0 32 32" fill="none" xmlns="http://www.w3.org/2000/svg">
<path d="M29.8887 15.9134C29.8559 13.229 29.0614 10.6099 27.5987 8.36463C26.1361 6.11932 24.0662 4.3413 21.6329 3.23996C19.1996 2.13862 16.5041 1.75982 13.864 2.14818C11.2239 2.53654 8.74904 3.67588 6.73093 5.43202C4.71281 7.18816 3.23547 9.48797 2.4729 12.0606C1.71032 14.6332 1.69426 17.3715 2.42662 19.953C3.15897 22.5345 4.60924 24.8517 6.60662 26.6317C8.604 28.4117 11.0653 29.5803 13.7007 30V20.0161H10.2006V15.9134H13.7007V12.7968C13.6197 12.0721 13.6978 11.3383 13.9294 10.6473C14.1611 9.95628 14.5407 9.32484 15.0414 8.79755C15.542 8.27027 16.1517 7.85998 16.8272 7.59565C17.5027 7.33132 18.2276 7.21939 18.9508 7.26777C20.0006 7.28276 21.0477 7.37694 22.0834 7.5495V11.0711H20.3334C20.0316 11.0329 19.7251 11.0633 19.4366 11.1602C19.1481 11.2571 18.8849 11.418 18.6665 11.631C18.4481 11.844 18.2801 12.1036 18.1748 12.3907C18.0695 12.6778 18.0297 12.9851 18.0583 13.2898V15.9486H21.9434L21.3134 20.0513H18.0758V29.912C21.3833 29.3856 24.3936 27.6839 26.5609 25.1156C28.7282 22.5473 29.9089 19.2825 29.8887 15.9134Z" fill="#333333"/>
</svg>
