<svg width="85" height="84" viewBox="0 0 85 84" fill="none" xmlns="http://www.w3.org/2000/svg">
<path d="M42.5 35C46.213 35 49.774 33.525 52.3995 30.8995C55.025 28.274 56.5 24.713 56.5 21C56.5 17.287 55.025 13.726 52.3995 11.1005C49.774 8.475 46.213 7 42.5 7C38.787 7 35.226 8.475 32.6005 11.1005C29.975 13.726 28.5 17.287 28.5 21C28.5 24.713 29.975 28.274 32.6005 30.8995C35.226 33.525 38.787 35 42.5 35ZM19.75 45.5C22.0706 45.5 24.2962 44.5781 25.9372 42.9372C27.5781 41.2962 28.5 39.0706 28.5 36.75C28.5 34.4294 27.5781 32.2038 25.9372 30.5628C24.2962 28.9219 22.0706 28 19.75 28C17.4294 28 15.2038 28.9219 13.5628 30.5628C11.9219 32.2038 11 34.4294 11 36.75C11 39.0706 11.9219 41.2962 13.5628 42.9372C15.2038 44.5781 17.4294 45.5 19.75 45.5ZM74 36.75C74 39.0706 73.0781 41.2962 71.4372 42.9372C69.7962 44.5781 67.5706 45.5 65.25 45.5C62.9294 45.5 60.7038 44.5781 59.0628 42.9372C57.4219 41.2962 56.5 39.0706 56.5 36.75C56.5 34.4294 57.4219 32.2038 59.0628 30.5628C60.7038 28.9219 62.9294 28 65.25 28C67.5706 28 69.7962 28.9219 71.4372 30.5628C73.0781 32.2038 74 34.4294 74 36.75ZM42.5 38.5C47.1413 38.5 51.5925 40.3437 54.8744 43.6256C58.1563 46.9075 60 51.3587 60 56V77H25V56C25 51.3587 26.8437 46.9075 30.1256 43.6256C33.4075 40.3437 37.8587 38.5 42.5 38.5ZM18 56C18 53.5745 18.35 51.233 19.008 49.021L18.413 49.07C15.4131 49.3994 12.6403 50.8246 10.6264 53.0723C8.61252 55.32 7.49922 58.232 7.5 61.25V77H18V56ZM77.5 77V61.25C77.5004 58.1293 76.3097 55.1261 74.1711 52.8534C72.0324 50.5808 69.107 49.21 65.992 49.021C66.6465 51.233 67 53.5745 67 56V77H77.5Z" fill="#333333"/>
</svg>
