<svg width="32" height="32" viewBox="0 0 32 32" fill="none" xmlns="http://www.w3.org/2000/svg">
<path d="M15.8901 3.27246C22.9194 3.27246 28.6174 8.97046 28.6174 15.9997C28.6174 23.029 22.9194 28.727 15.8901 28.727C13.6409 28.7309 11.4312 28.1356 9.48832 27.0025L3.16795 28.727L4.88868 22.4041C3.75463 20.4606 3.15892 18.2499 3.16286 15.9997C3.16286 8.97046 8.86086 3.27246 15.8901 3.27246ZM11.5527 10.0179L11.2981 10.0281C11.1336 10.0394 10.9728 10.0827 10.8247 10.1554C10.6867 10.2337 10.5607 10.3314 10.4505 10.4456C10.2978 10.5894 10.2112 10.7141 10.1183 10.835C9.64756 11.4471 9.3941 12.1985 9.39795 12.9706C9.4005 13.5943 9.56341 14.2014 9.81795 14.769C10.3385 15.917 11.195 17.1325 12.3252 18.2588C12.5976 18.5299 12.8649 18.8023 13.1525 19.0556C14.5569 20.2919 16.2303 21.1835 18.0398 21.6596L18.7627 21.7703C18.9981 21.783 19.2336 21.7652 19.4703 21.7537C19.8409 21.7342 20.2028 21.6338 20.5305 21.4597C20.697 21.3736 20.8597 21.2802 21.018 21.1797C21.018 21.1797 21.0718 21.1432 21.177 21.0652C21.3489 20.9379 21.4545 20.8476 21.597 20.6986C21.704 20.5883 21.793 20.4602 21.8643 20.3143C21.9636 20.1068 22.0629 19.711 22.1036 19.3814C22.1341 19.1294 22.1252 18.9919 22.1214 18.9066C22.1163 18.7705 22.003 18.6292 21.8796 18.5694L21.1389 18.2372C21.1389 18.2372 20.0316 17.7548 19.3545 17.4468C19.2836 17.416 19.2077 17.3983 19.1305 17.3946C19.0434 17.3855 18.9554 17.3952 18.8724 17.4231C18.7894 17.451 18.7133 17.4964 18.6494 17.5563C18.643 17.5537 18.5578 17.6263 17.6376 18.7412C17.5848 18.8122 17.512 18.8658 17.4286 18.8953C17.3452 18.9247 17.2549 18.9287 17.1692 18.9066C17.0863 18.8845 17.005 18.8565 16.9261 18.8226C16.7683 18.7565 16.7136 18.731 16.6054 18.6852C15.8747 18.3669 15.1983 17.9362 14.6009 17.4086C14.4405 17.2686 14.2916 17.1159 14.1389 16.9683C13.6382 16.4887 13.2018 15.9463 12.8407 15.3545L12.7656 15.2336C12.7125 15.1518 12.6689 15.0643 12.6358 14.9726C12.5874 14.7856 12.7134 14.6354 12.7134 14.6354C12.7134 14.6354 13.0227 14.2968 13.1665 14.1136C13.3065 13.9354 13.4249 13.7623 13.5012 13.6388C13.6514 13.397 13.6985 13.1488 13.6196 12.9566C13.2632 12.0861 12.895 11.2202 12.5149 10.359C12.4398 10.1885 12.217 10.0663 12.0147 10.0421C11.946 10.0336 11.8772 10.0268 11.8085 10.0217C11.6376 10.0119 11.4663 10.0136 11.2956 10.0268L11.5527 10.0179Z" fill="#333333"/>
</svg>
