<svg width="103" height="103" viewBox="0 0 103 103" fill="none" xmlns="http://www.w3.org/2000/svg">
<path d="M52 89.9957C42.5274 87.427 34.6593 82.1878 28.3956 74.278C22.1319 66.3682 19 57.4553 19 47.5394V24.2577L52 13L85 24.2577V47.5394C85 57.4524 81.8681 66.3639 75.6044 74.2737C69.3407 82.1835 61.4726 87.4213 52 89.9957ZM52 85.428C59.6214 83.2755 65.9857 79.025 71.0929 72.6765C76.2 66.328 79.1857 59.2405 80.05 51.4139H52V17.5935L23.7143 27.198V49.3948C23.7143 49.9516 23.7929 50.6246 23.95 51.4139H52V85.428Z" fill="#333333"/>
</svg>
