<svg width="21" height="20" viewBox="0 0 21 20" fill="none" xmlns="http://www.w3.org/2000/svg">
<path d="M10.75 14.094L7.36412 16.1337C7.21454 16.2289 7.05816 16.2697 6.89499 16.2561C6.73181 16.2425 6.58903 16.1881 6.46665 16.0929C6.34427 15.9978 6.24909 15.8789 6.1811 15.7364C6.11311 15.5939 6.09951 15.434 6.1403 15.2567L7.03777 11.4016L4.03941 8.81122C3.90343 8.68884 3.81858 8.54933 3.78486 8.39268C3.75114 8.23603 3.7612 8.08319 3.81505 7.93416C3.8689 7.78512 3.95048 7.66274 4.05981 7.56701C4.16914 7.47128 4.31872 7.41009 4.50854 7.38344L8.46555 7.03669L9.99533 3.40603C10.0633 3.24286 10.1688 3.12047 10.3119 3.03889C10.4549 2.9573 10.601 2.9165 10.75 2.9165C10.899 2.9165 11.0451 2.9573 11.1881 3.03889C11.3312 3.12047 11.4367 3.24286 11.5047 3.40603L13.0345 7.03669L16.9915 7.38344C17.1819 7.41063 17.3314 7.47182 17.4402 7.56701C17.549 7.6622 17.6306 7.78458 17.685 7.93416C17.7394 8.08373 17.7497 8.23685 17.716 8.3935C17.6823 8.55014 17.5971 8.68939 17.4606 8.81122L14.4623 11.4016L15.3597 15.2567C15.4005 15.4334 15.3869 15.5933 15.3189 15.7364C15.2509 15.8795 15.1558 15.9983 15.0334 16.0929C14.911 16.1876 14.7682 16.242 14.605 16.2561C14.4419 16.2703 14.2855 16.2295 14.1359 16.1337L10.75 14.094Z" fill="#333333"/>
</svg>
