<svg width="12" height="12" viewBox="0 0 12 12" fill="none" xmlns="http://www.w3.org/2000/svg">
<path d="M5.93895 8.18191L4.05789 9.31507C3.97479 9.36795 3.88792 9.39062 3.79726 9.38306C3.70661 9.37551 3.62729 9.34529 3.5593 9.29241C3.49131 9.23953 3.43843 9.1735 3.40066 9.09433C3.36289 9.01516 3.35533 8.92632 3.37799 8.82781L3.87659 6.68613L2.21083 5.24701C2.13529 5.17902 2.08815 5.10151 2.06942 5.01449C2.05068 4.92746 2.05627 4.84255 2.08619 4.75975C2.1161 4.67696 2.16143 4.60897 2.22217 4.55578C2.2829 4.5026 2.366 4.4686 2.47146 4.4538L4.6698 4.26116L5.51967 2.24413C5.55745 2.15347 5.61607 2.08548 5.69554 2.04016C5.77501 1.99483 5.85615 1.97217 5.93895 1.97217C6.02174 1.97217 6.10288 1.99483 6.18235 2.04016C6.26182 2.08548 6.32044 2.15347 6.35822 2.24413L7.20809 4.26116L9.40643 4.4538C9.51219 4.46891 9.59529 4.5029 9.65572 4.55578C9.71616 4.60866 9.76149 4.67665 9.7917 4.75975C9.82192 4.84285 9.82766 4.92791 9.80893 5.01494C9.79019 5.10197 9.7429 5.17933 9.66706 5.24701L8.0013 6.68613L8.4999 8.82781C8.52256 8.92602 8.51501 9.01486 8.47723 9.09433C8.43946 9.17381 8.38658 9.23983 8.31859 9.29241C8.2506 9.34499 8.17128 9.37521 8.08063 9.38306C7.98997 9.39092 7.9031 9.36826 7.82 9.31507L5.93895 8.18191Z" fill="#333333"/>
</svg>
