<svg width="16" height="16" viewBox="0 0 16 16" fill="none" xmlns="http://www.w3.org/2000/svg">
<path d="M8.16882 11.138L5.53535 12.7244C5.41901 12.7984 5.29738 12.8302 5.17047 12.8196C5.04355 12.809 4.9325 12.7667 4.83732 12.6927C4.74213 12.6186 4.6681 12.5262 4.61522 12.4154C4.56234 12.3045 4.55176 12.1802 4.58349 12.0422L5.28152 9.04389L2.94947 7.02912C2.8437 6.93393 2.77771 6.82542 2.75148 6.70358C2.72525 6.58175 2.73308 6.46287 2.77496 6.34695C2.81684 6.23104 2.8803 6.13585 2.96533 6.0614C3.05036 5.98694 3.1667 5.93935 3.31434 5.91862L6.39202 5.64893L7.58184 2.82508C7.63472 2.69816 7.71679 2.60298 7.82806 2.53952C7.93932 2.47606 8.05291 2.44434 8.16882 2.44434C8.28474 2.44434 8.39832 2.47606 8.50959 2.53952C8.62085 2.60298 8.70292 2.69816 8.7558 2.82508L9.94562 5.64893L13.0233 5.91862C13.1714 5.93977 13.2877 5.98736 13.3723 6.0614C13.4569 6.13543 13.5204 6.23062 13.5627 6.34695C13.605 6.46329 13.613 6.58238 13.5868 6.70422C13.5606 6.82606 13.4944 6.93436 13.3882 7.02912L11.0561 9.04389L11.7542 12.0422C11.7859 12.1797 11.7753 12.3041 11.7224 12.4154C11.6695 12.5266 11.5955 12.6191 11.5003 12.6927C11.4051 12.7663 11.2941 12.8086 11.1672 12.8196C11.0403 12.8306 10.9186 12.7989 10.8023 12.7244L8.16882 11.138Z" fill="#333333"/>
</svg>
