<svg width="19" height="20" viewBox="0 0 19 20" fill="none" xmlns="http://www.w3.org/2000/svg">
<g clip-path="url(#clip0_8_150)">
<path fill-rule="evenodd" clip-rule="evenodd" d="M6.79019 11.0468L9.46953 12.8788L12.0523 11.097L17.8418 16.8088C17.689 16.8587 17.5274 16.8839 17.357 16.8846H1.57825C1.36997 16.8846 1.17115 16.8438 0.988421 16.7709L6.79019 11.0468ZM18.9353 6.35276V15.3063C18.9353 15.5401 18.8841 15.7617 18.7932 15.9615L13.1184 10.3623L18.9353 6.35276ZM0 6.40294L5.72034 10.315L0.100357 15.8611C0.0345216 15.6835 0.000548168 15.4957 0 15.3063L0 6.40294ZM17.357 2.68311C18.228 2.68311 18.9353 3.38939 18.9353 4.26136V4.81616L9.46574 11.3441L0 4.87013V4.26136C0 3.39034 0.706285 2.68311 1.57825 2.68311H17.357Z" fill="#333333"/>
</g>
<defs>
<clipPath id="clip0_8_150">
<rect width="18.9353" height="18.9353" fill="white" transform="translate(0 0.316406)"/>
</clipPath>
</defs>
</svg>
